<svg width="114" height="148" viewBox="0 0 114 148" fill="none" xmlns="http://www.w3.org/2000/svg">
<circle cx="57" cy="57.6602" r="56.875" fill="#F0F1F5"/>
<rect x="34.8841" y="56.7142" width="55.2727" height="77.5455" rx="7" transform="rotate(2.5 34.8841 56.7142)" fill="#F0F1F5" stroke="#D1D5E0" stroke-width="2"/>
<rect x="1.35654" y="51.6619" width="59.2727" height="81.5455" rx="9" transform="rotate(-7.5 1.35654 51.6619)" fill="#FAFAFA" stroke="#D1D5E0" stroke-width="2"/>
<path d="M3.52273 60.4544C2.94602 56.0739 6.0296 52.0553 10.4101 51.4786L51.3297 46.0914C55.7102 45.5147 59.7288 48.5983 60.3055 52.9788L61.6493 63.1862L4.86655 70.6618L3.52273 60.4544Z" fill="#F0F1F5"/>
<rect x="71.6104" y="47.4331" width="2.38636" height="7.95455" rx="1.19318" transform="rotate(82.5 71.6104 47.4331)" fill="#D1D5E0"/>
<rect x="49.8174" y="34.2556" width="2.38636" height="7.95455" rx="1.19318" transform="rotate(-7.5 49.8174 34.2556)" fill="#D1D5E0"/>
<rect x="63.7993" y="36.4265" width="2.38636" height="7.95455" rx="1.19318" transform="rotate(37.5 63.7993 36.4265)" fill="#D1D5E0"/>
<rect x="10.8022" y="73.0896" width="46.1364" height="3.18182" rx="1.59091" transform="rotate(-7.5 10.8022 73.0896)" fill="#B3B9CC"/>
<rect x="12.8789" y="88.8625" width="46.1364" height="3.18182" rx="1.59091" transform="rotate(-7.5 12.8789 88.8625)" fill="#B3B9CC"/>
<rect x="14.9551" y="104.635" width="46.1364" height="3.18182" rx="1.59091" transform="rotate(-7.5 14.9551 104.635)" fill="#B3B9CC"/>
<rect x="11.6328" y="79.3987" width="16.7045" height="3.18182" rx="1.59091" transform="rotate(-7.5 11.6328 79.3987)" fill="#F0F1F5"/>
<rect x="13.7095" y="95.1716" width="16.7045" height="3.18182" rx="1.59091" transform="rotate(-7.5 13.7095 95.1716)" fill="#F0F1F5"/>
<rect x="15.7856" y="110.945" width="16.7045" height="3.18182" rx="1.59091" transform="rotate(-7.5 15.7856 110.945)" fill="#F0F1F5"/>
</svg>
