<svg width="275" height="236" viewBox="0 0 275 236" fill="none" xmlns="http://www.w3.org/2000/svg">
<g clip-path="url(#clip0_106_196)">
<path d="M80.8172 233.537C85.2317 229.798 87.9132 223.89 87.21 218.139C86.5068 212.388 82.1513 207.101 76.5015 205.88C70.8518 204.658 64.4114 208.039 62.6954 213.572C61.751 202.905 60.6628 191.791 55.0057 182.707C49.8833 174.481 41.0113 168.596 31.396 167.543C21.7808 166.49 11.6571 170.467 5.66045 178.075C-0.336237 185.683 -1.8045 196.744 2.39543 205.479C5.48936 211.914 11.1895 216.703 17.1618 220.599C36.4605 233.082 59.6067 238.158 82.3418 234.894" fill="#DFEFFF"/>
<path d="M15.1688 170.687C23.1026 177.166 30.381 184.411 36.8988 192.319C47.099 204.653 55.3532 218.481 61.3737 233.322C61.8144 234.405 60.0607 234.876 59.6249 233.806C55.7963 224.422 51.0596 215.438 45.4827 206.981C36.7862 193.77 26.1317 181.965 13.8864 171.973C12.981 171.234 14.2709 169.954 15.1688 170.687V170.687Z" fill="white"/>
<path d="M83.8665 233.537C79.4519 229.798 76.7704 223.89 77.4736 218.139C78.1768 212.388 82.5324 207.101 88.1821 205.88C93.8318 204.658 100.272 208.039 101.988 213.572C102.933 202.905 104.021 191.791 109.678 182.707C114.8 174.481 123.672 168.596 133.288 167.543C142.903 166.49 153.026 170.467 159.023 178.075C165.02 185.683 166.488 196.744 162.288 205.479C159.194 211.914 153.494 216.703 147.522 220.599C128.223 233.082 105.077 238.158 82.3419 234.894" fill="#DFEFFF"/>
<path d="M149.515 170.687C141.581 177.166 134.303 184.411 127.785 192.319C117.585 204.653 109.33 218.481 103.31 233.322C102.869 234.405 104.623 234.876 105.059 233.806C114.909 209.686 130.635 188.427 150.797 171.973C151.703 171.234 150.413 169.954 149.515 170.687V170.687Z" fill="white"/>
<path d="M96.9664 106.164C105.133 106.164 111.754 99.5268 111.754 91.3394C111.754 83.1519 105.133 76.5146 96.9664 76.5146C88.7995 76.5146 82.1789 83.1519 82.1789 91.3394C82.1789 99.5268 88.7995 106.164 96.9664 106.164Z" fill="#DFEFFF"/>
<path d="M51.3725 40.2361H153.254V45.8242H64.3786C59.153 45.8242 53.9786 46.856 49.1508 48.8608C44.323 50.8655 39.9364 53.804 36.2414 57.5083C32.5463 61.2126 29.6152 65.6103 27.6155 70.4502C25.6158 75.2901 24.5865 80.4776 24.5865 85.7163V149.204H13.4384C12.9456 149.204 12.473 149.007 12.1246 148.658C11.7762 148.309 11.5804 147.835 11.5804 147.341V80.1282C11.5804 74.8895 12.6096 69.702 14.6094 64.8621C16.6091 60.0222 19.5402 55.6245 23.2352 51.9202C26.9303 48.2158 31.3169 45.2774 36.1447 43.2727C40.9725 41.2679 46.1469 40.2361 51.3725 40.2361Z" fill="#DFEFFF"/>
<path d="M70.9691 233.848V148.964H95.774V233.848C95.7733 234.419 95.5469 234.966 95.1445 235.369C94.7421 235.772 94.1965 235.999 93.6274 236H73.1156C72.5465 235.999 72.0009 235.772 71.5985 235.369C71.1961 234.966 70.9697 234.419 70.9691 233.848Z" fill="#3F3D56"/>
<path d="M6.33319 147.291V78.2676C6.34557 67.2796 10.7051 56.7451 18.4553 48.9754C26.2055 41.2056 36.7135 36.8351 47.674 36.8227H152.777V149.682H8.71828C8.08593 149.681 7.47971 149.429 7.03257 148.981C6.58544 148.532 6.33391 147.925 6.33319 147.291ZM151.823 37.7791H47.674C36.9665 37.7913 26.701 42.0609 19.1296 49.6514C11.5582 57.2418 7.29933 67.5331 7.28723 78.2676V147.291C7.28764 147.671 7.43854 148.036 7.70683 148.305C7.97511 148.574 8.33887 148.725 8.71828 148.725H151.823V37.7791Z" fill="#3F3D56"/>
<path d="M96.9665 98.9909C94.69 98.9883 92.5075 98.0806 90.8978 96.4668C89.2882 94.8531 88.3827 92.6651 88.3801 90.383V28.693C88.3797 28.3126 88.2288 27.948 87.9605 27.679C87.6922 27.4101 87.3285 27.2588 86.9491 27.2584H53.5579C52.9255 27.2576 52.3193 27.0055 51.8722 26.5572C51.4251 26.109 51.1735 25.5012 51.1728 24.8673V2.39108C51.1735 1.75715 51.4251 1.1494 51.8722 0.70114C52.3193 0.252884 52.9255 0.000734082 53.5579 0H103.168C103.8 0.00072524 104.406 0.252875 104.853 0.701133C105.301 1.14939 105.552 1.75715 105.553 2.39108V90.383C105.55 92.6651 104.645 94.8531 103.035 96.4668C101.425 98.0806 99.2429 98.9883 96.9665 98.9909Z" fill="#FFF159"/>
<path d="M156.594 35.8662C163.79 35.8511 170.697 38.7024 175.796 43.793C180.895 48.8835 183.768 55.7963 183.784 63.0105V141.586H237.209C239.356 141.582 241.416 142.432 242.937 143.95C244.457 145.468 245.314 147.53 245.319 149.682H129.404V63.0105C129.419 55.7963 132.292 48.8835 137.391 43.793C142.49 38.7024 149.397 35.8511 156.594 35.8662Z" fill="#3F3D56"/>
<path d="M150.069 80.6118L155.699 103.928L265.834 77.1995L260.203 53.8835C260.135 53.5985 259.997 53.3352 259.8 53.1183C259.603 52.9013 259.355 52.7377 259.079 52.6425C258.875 52.5706 258.659 52.538 258.442 52.5465L194.78 19.5008C194.407 19.3099 193.978 19.2588 193.571 19.357C193.164 19.4551 192.805 19.696 192.559 20.0361L161.877 62.9291L150.311 79.1038C150.29 79.1321 150.275 79.1646 150.268 79.1992C150.26 79.2337 150.26 79.2693 150.268 79.3038C150.033 79.6966 149.961 80.1666 150.069 80.6118Z" fill="white"/>
<path d="M150.268 79.3038C150.274 79.3341 150.285 79.3631 150.302 79.389C150.318 79.4149 150.34 79.4373 150.365 79.4548C150.395 79.4753 150.429 79.4895 150.464 79.4966C150.5 79.5036 150.536 79.5033 150.572 79.4957C150.629 79.4804 150.68 79.4453 150.714 79.3966L150.754 79.3414L151.356 78.4971L162.294 63.2113L192.966 20.328C193.141 20.085 193.397 19.913 193.688 19.8431C193.979 19.7733 194.285 19.8102 194.551 19.9473L257.72 52.737L258.287 53.0319C258.31 53.0416 258.333 53.0498 258.357 53.0567C258.4 53.0489 258.443 53.0447 258.487 53.0442C258.546 53.0243 258.595 52.9824 258.625 52.9272C258.64 52.8981 258.65 52.8662 258.653 52.8334C258.656 52.8006 258.653 52.7675 258.643 52.736C258.633 52.7045 258.617 52.6753 258.596 52.6499C258.575 52.6246 258.55 52.6036 258.521 52.5883L258.442 52.5465L194.78 19.5008C194.407 19.3099 193.978 19.2588 193.571 19.357C193.164 19.4551 192.805 19.696 192.559 20.0361L161.877 62.9291L150.311 79.1038C150.29 79.1321 150.275 79.1646 150.268 79.1991C150.26 79.2337 150.26 79.2693 150.268 79.3038Z" fill="#3F3D56"/>
<path d="M183.345 81.6812L185.796 81.9538L203.991 83.9745L216.053 85.3132L216.765 85.3926L231.816 73.607L232.393 73.1556L235.948 70.3723L248.595 60.4702L248.671 59.7746L253.169 19.0716C253.231 18.5112 253.068 17.9492 252.717 17.5089C252.365 17.0686 251.854 16.7859 251.295 16.7229L191.26 10.0557C190.701 9.99449 190.14 10.1579 189.701 10.51C189.262 10.8622 188.98 11.3745 188.917 11.9347L185.745 40.6457L183.985 56.5635L182.411 70.8041L181.681 77.4174L181.468 79.333C181.407 79.8937 181.571 80.4557 181.922 80.8958C182.274 81.336 182.786 81.6184 183.345 81.6812Z" fill="#BFDFFF"/>
<path d="M199.843 46.0034L225.848 48.8909L235.07 49.9146C235.478 49.9599 235.89 49.9242 236.283 49.8098C236.677 49.6953 237.044 49.5043 237.363 49.2477C237.683 48.991 237.949 48.6737 238.147 48.3139C238.344 47.954 238.469 47.5587 238.514 47.1505C238.559 46.7423 238.524 46.3292 238.41 45.9348C238.296 45.5404 238.105 45.1724 237.849 44.8517C237.593 44.5311 237.277 44.2642 236.918 44.0663C236.559 43.8683 236.164 43.7431 235.757 43.6979L224.286 42.4243L200.531 39.7836C199.709 39.6925 198.884 39.9326 198.238 40.4511C197.592 40.9696 197.178 41.724 197.086 42.5485C196.995 43.373 197.234 44.2001 197.751 44.848C198.268 45.4959 199.02 45.9115 199.843 46.0034Z" fill="white"/>
<path d="M198.362 57.536C198.429 57.548 198.496 57.56 198.564 57.5666L228.752 60.9194L233.793 61.4802C234.615 61.5715 235.44 61.3313 236.087 60.8127C236.733 60.294 237.147 59.5393 237.238 58.7146C237.329 57.8899 237.089 57.0627 236.572 56.415C236.054 55.7674 235.302 55.3523 234.479 55.2611L227.191 54.4527L203.278 51.7963L199.254 51.3492C198.449 51.2592 197.641 51.4865 197 51.983C196.359 52.4795 195.936 53.2064 195.821 54.0098C195.705 54.8133 195.905 55.6304 196.379 56.2885C196.854 56.9465 197.564 57.3938 198.362 57.5359V57.536Z" fill="white"/>
<path d="M194.945 67.7621C195.193 68.1739 195.531 68.5229 195.935 68.7821C196.339 69.0413 196.797 69.2037 197.273 69.2567L209.646 70.6305L231.683 73.0781L231.688 73.0769L232.393 73.1556L235.948 70.3723C235.97 70.1609 235.97 69.9477 235.948 69.7363C235.873 69.0263 235.559 68.3632 235.057 67.8568C234.555 67.3504 233.895 67.0309 233.188 66.9512L230.127 66.6102L217.983 65.263L209.246 64.2915L197.959 63.0375C197.381 62.9734 196.796 63.0726 196.271 63.3242C195.746 63.5757 195.302 63.9695 194.988 64.461C194.674 64.9524 194.504 65.522 194.497 66.1054C194.489 66.6887 194.644 67.2626 194.945 67.7621L194.945 67.7621Z" fill="white"/>
<path d="M212.324 31.9065L218.795 32.6249L221.653 32.9431L225.97 33.4221C226.792 33.5133 227.617 33.2732 228.263 32.7545C228.909 32.2359 229.324 31.4812 229.415 30.6565C229.506 29.8318 229.266 29.0046 228.749 28.3569C228.231 27.7092 227.479 27.2941 226.656 27.2029L213.013 25.6891C212.191 25.5975 211.366 25.8371 210.72 26.3553C210.074 26.8735 209.659 27.6278 209.568 28.4523C209.477 29.2768 209.716 30.1039 210.232 30.7517C210.749 31.3995 211.502 31.8149 212.324 31.9065V31.9065Z" fill="white"/>
<path d="M159.416 49.2238L167.304 81.8927L180.471 84.4024L192.65 86.727L205.717 89.2197L209.892 90.0162C210.137 90.0625 210.388 90.0561 210.63 89.9975C210.872 89.9388 211.098 89.8292 211.295 89.6759L214.644 87.0531L216.765 85.3928L231.816 73.6072L222.246 33.9757C222.152 33.5814 221.946 33.2228 221.653 32.9432C221.396 32.6957 221.081 32.517 220.737 32.4237C220.393 32.3303 220.031 32.3252 219.685 32.4089L160.979 46.6562C160.432 46.7893 159.96 47.1344 159.667 47.6159C159.374 48.0973 159.284 48.6756 159.416 49.2238Z" fill="#FFF159"/>
<path d="M177.505 75.2129C177.7 76.0188 178.206 76.714 178.912 77.146C179.618 77.578 180.467 77.7114 181.271 77.517L215.718 69.1569C216.522 68.9607 217.215 68.4531 217.646 67.7452C218.077 67.0374 218.21 66.1872 218.017 65.3811C218.008 65.3411 217.997 65.3017 217.983 65.2631C217.763 64.4858 217.252 63.8241 216.556 63.4166C215.86 63.0091 215.034 62.8874 214.25 63.077L179.803 71.437C178.999 71.6328 178.305 72.1404 177.875 72.8483C177.444 73.5563 177.311 74.4067 177.505 75.2129Z" fill="white"/>
<path d="M180.471 84.4022L192.65 86.7268L218.449 80.4656C219.254 80.2705 219.947 79.763 220.378 79.0549C220.809 78.3468 220.942 77.496 220.748 76.6897C220.553 75.8835 220.047 75.1878 219.34 74.7557C218.634 74.3236 217.785 74.1905 216.981 74.3857L182.534 82.7457C181.814 82.919 181.18 83.3451 180.746 83.9467C180.642 84.0905 180.55 84.2429 180.471 84.4022Z" fill="white"/>
<path d="M205.717 89.2196L209.893 90.0161C210.137 90.0624 210.389 90.056 210.63 89.9974C210.872 89.9387 211.099 89.8291 211.295 89.6758L214.645 87.053L205.717 89.2196Z" fill="white"/>
<path d="M184.446 57.6954C184.641 58.5012 185.147 59.1965 185.853 59.6285C186.56 60.0604 187.408 60.1939 188.212 59.9994L201.554 56.7614C202.358 56.5652 203.051 56.0575 203.482 55.3497C203.913 54.6419 204.046 53.7917 203.853 52.9855C203.749 52.5523 203.553 52.1467 203.278 51.7965C202.909 51.3232 202.411 50.9663 201.845 50.7686C201.28 50.5709 200.669 50.5406 200.086 50.6814L186.744 53.9195C185.94 54.1148 185.246 54.6222 184.815 55.3303C184.384 56.0384 184.251 56.8891 184.446 57.6954V57.6954Z" fill="white"/>
<path d="M192.649 86.7266L205.718 89.2199L209.893 90.0168C210.137 90.0625 210.388 90.0559 210.63 89.9972C210.871 89.9386 211.098 89.8293 211.294 89.6766L214.646 87.0532L213.47 87.3387L210.987 89.2807C210.846 89.3898 210.685 89.4679 210.512 89.5097C210.339 89.5516 210.16 89.5564 209.985 89.5237L206.895 88.9344L193.825 86.4411L192.649 86.7266ZM231.687 73.0788L231.814 73.6057L232.394 73.1539L231.687 73.0788ZM192.649 86.7266L205.718 89.2199L209.893 90.0168C210.137 90.0625 210.388 90.0559 210.63 89.9972C210.871 89.9386 211.098 89.8293 211.294 89.6766L214.646 87.0532L213.47 87.3387L210.987 89.2807C210.846 89.3898 210.685 89.4679 210.512 89.5097C210.339 89.5516 210.16 89.5564 209.985 89.5237L206.895 88.9344L193.825 86.4411L192.649 86.7266ZM192.649 86.7266L205.718 89.2199L209.893 90.0168C210.137 90.0625 210.388 90.0559 210.63 89.9972C210.871 89.9386 211.098 89.8293 211.294 89.6766L214.646 87.0532L213.47 87.3387L210.987 89.2807C210.846 89.3898 210.685 89.4679 210.512 89.5097C210.339 89.5516 210.16 89.5564 209.985 89.5237L206.895 88.9344L193.825 86.4411L192.649 86.7266ZM150.069 80.6118L164.817 141.685C164.926 142.136 165.21 142.526 165.605 142.767C166 143.009 166.476 143.084 166.926 142.975L273.664 117.071C274.114 116.962 274.502 116.677 274.744 116.281C274.985 115.884 275.059 115.408 274.951 114.957L260.203 53.8835C260.135 53.5984 259.997 53.3351 259.8 53.1182C259.603 52.9012 259.355 52.7376 259.079 52.6425C258.875 52.5705 258.659 52.5379 258.442 52.5464C258.19 52.5537 257.943 52.6189 257.72 52.7369C257.617 52.7859 257.52 52.8464 257.43 52.9172L248.67 59.7748L235.948 69.7377L231.686 73.0752L231.687 73.0788L231.683 73.0797L216.054 85.3115L213.47 87.3387L210.987 89.2807C210.846 89.3898 210.685 89.4678 210.512 89.5097C210.339 89.5516 210.16 89.5564 209.985 89.5237L206.895 88.9344L193.825 86.4411L180.745 83.9469L152.094 78.4811C151.85 78.4325 151.598 78.438 151.356 78.497C151.03 78.5768 150.734 78.7488 150.503 78.9924C150.415 79.0881 150.336 79.1924 150.268 79.3037C150.033 79.6965 149.961 80.1665 150.069 80.6118ZM192.649 86.7266L205.718 89.2199L209.893 90.0168C210.137 90.0625 210.388 90.0559 210.63 89.9972C210.871 89.9386 211.098 89.8293 211.294 89.6766L214.646 87.0532L213.47 87.3387L210.987 89.2807C210.846 89.3898 210.685 89.4679 210.512 89.5097C210.339 89.5516 210.16 89.5564 209.985 89.5237L206.895 88.9344L193.825 86.4411L192.649 86.7266ZM192.649 86.7266L205.718 89.2199L209.893 90.0168C210.137 90.0625 210.388 90.0559 210.63 89.9972C210.871 89.9386 211.098 89.8293 211.294 89.6766L214.646 87.0532L213.47 87.3387L210.987 89.2807C210.846 89.3898 210.685 89.4679 210.512 89.5097C210.339 89.5516 210.16 89.5564 209.985 89.5237L206.895 88.9344L193.825 86.4411L192.649 86.7266ZM192.649 86.7266L205.718 89.2199L209.893 90.0168C210.137 90.0625 210.388 90.0559 210.63 89.9972C210.871 89.9386 211.098 89.8293 211.294 89.6766L214.646 87.0532L213.47 87.3387L210.987 89.2807C210.846 89.3898 210.685 89.4679 210.512 89.5097C210.339 89.5516 210.16 89.5564 209.985 89.5237L206.895 88.9344L193.825 86.4411L192.649 86.7266Z" fill="white"/>
<path d="M192.649 86.7266L205.718 89.2198L209.893 90.0168C210.137 90.0625 210.388 90.0559 210.63 89.9972C210.871 89.9386 211.098 89.8293 211.294 89.6766L214.646 87.0532L213.47 87.3387L210.987 89.2807C210.846 89.3898 210.685 89.4678 210.512 89.5097C210.339 89.5516 210.16 89.5564 209.985 89.5237L206.895 88.9343L193.825 86.4411L192.649 86.7266ZM231.687 73.0788L231.814 73.6057L232.394 73.1539L231.687 73.0788ZM192.649 86.7266L205.718 89.2198L209.893 90.0168C210.137 90.0625 210.388 90.0559 210.63 89.9972C210.871 89.9386 211.098 89.8293 211.294 89.6766L214.646 87.0532L213.47 87.3387L210.987 89.2807C210.846 89.3898 210.685 89.4678 210.512 89.5097C210.339 89.5516 210.16 89.5564 209.985 89.5237L206.895 88.9343L193.825 86.4411L192.649 86.7266ZM192.649 86.7266L205.718 89.2198L209.893 90.0168C210.137 90.0625 210.388 90.0559 210.63 89.9972C210.871 89.9386 211.098 89.8293 211.294 89.6766L214.646 87.0532L213.47 87.3387L210.987 89.2807C210.846 89.3898 210.685 89.4678 210.512 89.5097C210.339 89.5516 210.16 89.5564 209.985 89.5237L206.895 88.9343L193.825 86.4411L192.649 86.7266ZM150.754 79.3414L150.819 79.3901C150.83 79.3723 150.849 79.3564 150.863 79.3377C151.007 79.1869 151.187 79.0744 151.386 79.0103C151.584 78.9462 151.795 78.9326 152.001 78.9705L180.472 84.4002L192.649 86.7266L205.718 89.2198L209.893 90.0168C210.137 90.0625 210.388 90.0558 210.63 89.9972C210.871 89.9386 211.098 89.8293 211.294 89.6766L214.646 87.0532L213.47 87.3387L210.987 89.2807C210.846 89.3898 210.685 89.4678 210.512 89.5097C210.339 89.5516 210.16 89.5564 209.985 89.5237L206.895 88.9343L193.825 86.4411L180.745 83.9469L152.094 78.481C151.85 78.4325 151.598 78.438 151.356 78.497L150.754 79.3414ZM150.069 80.6117L164.817 141.685C164.926 142.136 165.21 142.526 165.605 142.767C166 143.009 166.476 143.084 166.926 142.975L273.664 117.071C274.114 116.962 274.502 116.677 274.744 116.281C274.985 115.884 275.059 115.408 274.951 114.957L260.203 53.8835C260.135 53.5984 259.997 53.3351 259.8 53.1182C259.603 52.9012 259.355 52.7376 259.079 52.6425C258.875 52.5705 258.659 52.5379 258.442 52.5464C258.19 52.5537 257.943 52.6189 257.72 52.7369C257.617 52.7859 257.52 52.8464 257.43 52.9172L248.67 59.7748L235.948 69.7377L231.686 73.0752L231.687 73.0788L231.683 73.0797L216.054 85.3115L213.47 87.3387L210.987 89.2807C210.846 89.3898 210.685 89.4678 210.512 89.5097C210.339 89.5516 210.16 89.5564 209.985 89.5237L206.895 88.9344L193.825 86.4411L180.745 83.9469L152.094 78.481C151.85 78.4325 151.598 78.438 151.356 78.497C151.03 78.5768 150.734 78.7488 150.503 78.9924C150.415 79.0881 150.336 79.1924 150.268 79.3037C150.033 79.6965 149.961 80.1665 150.069 80.6117ZM150.555 80.4937C150.512 80.3137 150.509 80.1262 150.547 79.9449C150.585 79.7637 150.663 79.5933 150.776 79.4462C150.786 79.4245 150.8 79.4054 150.819 79.3902C150.83 79.3723 150.849 79.3564 150.863 79.3377C151.007 79.1869 151.187 79.0744 151.386 79.0103C151.584 78.9462 151.795 78.9326 152.001 78.9705L180.472 84.4002L192.649 86.7266L205.718 89.2198L209.893 90.0168C210.137 90.0625 210.388 90.0559 210.63 89.9972C210.871 89.9386 211.098 89.8293 211.294 89.6766L214.646 87.0532L216.766 85.3929L231.814 73.6057L232.394 73.1539L235.946 70.3718L248.596 60.4683L257.741 53.3086C257.88 53.1999 258.04 53.1222 258.212 53.0805C258.26 53.0688 258.308 53.0608 258.357 53.0566C258.4 53.0488 258.443 53.0446 258.487 53.0441C258.633 53.0427 258.778 53.0665 258.916 53.1144C259.113 53.1832 259.29 53.3003 259.431 53.4551C259.571 53.6099 259.671 53.7974 259.721 54.0006L274.468 115.074C274.507 115.234 274.514 115.4 274.489 115.563C274.463 115.725 274.406 115.882 274.321 116.022C274.235 116.163 274.123 116.285 273.99 116.382C273.857 116.479 273.707 116.549 273.547 116.587L166.809 142.491C166.487 142.569 166.147 142.515 165.865 142.342C165.583 142.168 165.38 141.89 165.303 141.567L150.555 80.4937ZM192.649 86.7266L205.718 89.2199L209.893 90.0168C210.137 90.0625 210.388 90.0559 210.63 89.9972C210.871 89.9386 211.098 89.8293 211.294 89.6766L214.646 87.0532L213.47 87.3387L210.987 89.2807C210.846 89.3898 210.685 89.4679 210.512 89.5097C210.339 89.5516 210.16 89.5564 209.985 89.5237L206.895 88.9344L193.825 86.4411L192.649 86.7266ZM192.649 86.7266L205.718 89.2199L209.893 90.0168C210.137 90.0625 210.388 90.0559 210.63 89.9972C210.871 89.9386 211.098 89.8293 211.294 89.6766L214.646 87.0532L213.47 87.3387L210.987 89.2807C210.846 89.3898 210.685 89.4679 210.512 89.5097C210.339 89.5516 210.16 89.5564 209.985 89.5237L206.895 88.9344L193.825 86.4411L192.649 86.7266ZM192.649 86.7266L205.718 89.2199L209.893 90.0168C210.137 90.0625 210.388 90.0559 210.63 89.9972C210.871 89.9386 211.098 89.8293 211.294 89.6766L214.646 87.0532L213.47 87.3387L210.987 89.2807C210.846 89.3898 210.685 89.4679 210.512 89.5097C210.339 89.5516 210.16 89.5564 209.985 89.5237L206.895 88.9344L193.825 86.4411L192.649 86.7266Z" fill="#3F3D56"/>
<path d="M245.844 105.072C245.604 104.072 245.769 103.016 246.304 102.137C246.839 101.259 247.7 100.629 248.697 100.385L262.169 97.1158C263.166 96.8776 264.216 97.0452 265.09 97.5819C265.964 98.1186 266.59 98.9806 266.831 99.9791C267.072 100.978 266.909 102.031 266.377 102.909C265.844 103.787 264.987 104.418 263.992 104.663L250.52 107.933C249.522 108.174 248.469 108.008 247.592 107.472C246.716 106.935 246.087 106.073 245.844 105.072Z" fill="#FFF159"/>
<path d="M96.9665 93.7305C98.8106 93.7305 100.306 92.2318 100.306 90.383C100.306 88.5342 98.8106 87.0355 96.9665 87.0355C95.1223 87.0355 93.6273 88.5342 93.6273 90.383C93.6273 92.2318 95.1223 93.7305 96.9665 93.7305Z" fill="white"/>
</g>
<defs>
<clipPath id="clip0_106_196">
<rect width="275" height="236" fill="white"/>
</clipPath>
</defs>
</svg>
