<svg width="14" height="14" viewBox="0 0 14 14" fill="none" xmlns="http://www.w3.org/2000/svg">
    <path d="M11.6663 5.83342C11.6663 9.33342 6.99967 12.8334 6.99967 12.8334C6.99967 12.8334 2.33301 9.33342 2.33301 5.83342C2.33301 4.59574 2.82467 3.40875 3.69984 2.53358C4.57501 1.65841 5.762 1.16675 6.99967 1.16675C8.23735 1.16675 9.42434 1.65841 10.2995 2.53358C11.1747 3.40875 11.6663 4.59574 11.6663 5.83342V5.83342Z" fill="#FF8A65" stroke="#FF8A65" stroke-width="1.5" stroke-linecap="round" stroke-linejoin="round"/>
    <path d="M7 9C8.65685 9 10 7.65685 10 6C10 4.34315 8.65685 3 7 3C5.34315 3 4 4.34315 4 6C4 7.65685 5.34315 9 7 9Z" fill="white" stroke="#FF8A65" stroke-width="1.5" stroke-linecap="round" stroke-linejoin="round"/>
</svg>