<svg width="426" height="426" viewBox="0 0 426 426" fill="none" xmlns="http://www.w3.org/2000/svg">
<path d="M114 1.99999C102.3 6.3 92.3998 15.7 87.6998 27.2L85.4998 32.5L85.1998 167C84.9998 267.5 85.1998 302.9 86.0998 307C89.3998 322.8 101.6 335.3 117.5 339.5C122.7 340.8 140.1 341 256 341C341.6 341 390.1 340.6 392.9 339.9C405.2 337.1 416.4 328 422.2 316.3L425.5 309.5V170.4V31.4L421.8 23.9C417.2 14.6 410.6 8.1 401.2 3.69999L394.5 0.499995L257 0.299995C122.2 0.0999949 119.4 0.0999949 114 1.99999ZM383.8 170.2L384 298H256H128V170V42L255.8 42.2L383.5 42.5L383.8 170.2Z" fill="#616161"/>
<path d="M315.001 106.9C309.101 108.7 304.701 112.7 270.501 146.9L234.501 183L219.501 168C203.801 152.4 198.901 149.1 191.701 149C182.901 149 174.001 155.9 171.401 164.8C169.701 170.5 170.101 174.3 173.101 180C175.801 185.3 221.701 230.6 226.201 232.5C231.301 234.6 238.601 234.4 243.401 232C246.101 230.7 263.001 214.6 292.201 185.3C339.001 138.4 340.901 136.1 341.001 127.7C341.001 119.1 334.101 110 325.601 107.5C320.201 105.9 318.801 105.8 315.001 106.9Z" fill="#616161"/>
<path d="M11.5002 129.7C7.10024 132 4.10024 135 1.90024 139.2C0.000242422 142.9 0.000242398 146.5 0.200242 268.8L0.500242 394.6L4.20024 402.1C8.80024 411.4 15.4002 417.9 24.8002 422.3L31.5002 425.5L157.3 425.8C279.5 426 283.1 426 286.8 424.1C294.3 420.2 298 414 298 405C298 396.5 293.6 388.7 287 385.6C285.2 384.8 251.6 384.4 163.5 384L42.5002 383.5L42.0002 262.5C41.6002 162.5 41.3002 141.1 40.1002 139C37.9002 134.9 33.7002 130.9 30.1002 129.4C25.6002 127.5 15.3002 127.7 11.5002 129.7Z" fill="#616161"/>
</svg>
