<svg width="512" height="512" viewBox="0 0 512 512" fill="none" xmlns="http://www.w3.org/2000/svg">
<path d="M95.8 22.1C59.7 27.4 32.7 51.7 23.7 86.8C21.5 95.4 21.5 96 21.5 178.5V261.5L23.7 265.5C26.4 270.5 29.5 273.5 34.2 275.5C37.4 276.8 45.6 277 93.5 277H149V373.8C149 455.5 149.2 471.4 150.4 475.5C154.3 488.3 169.4 494.4 180.8 487.9C182.6 486.9 197.8 474.3 214.5 460C231.2 445.7 245.1 434 245.4 434C245.8 434 260.1 446 277.3 460.8C294.4 475.5 310.1 488.2 312 489C316.8 491.1 324.7 490.8 329.2 488.4C331.2 487.4 346.5 474.9 363.1 460.6C379.7 446.4 393.9 434.7 394.6 434.6C395.3 434.6 409.2 446 425.6 460C441.9 474 456.9 486.5 458.8 487.7C470.6 495 487 487.8 490 473.9C490.8 469.9 491 421 490.8 281.5L490.5 94.5L488.2 86.3C479.7 54.4 456.1 31.2 424.1 23.3C418.1 21.8 402.8 21.6 259.5 21.4C172.6 21.3 98.9 21.6 95.8 22.1ZM121.8 66.8C129.6 69.8 137.6 76.3 142.1 83.3C149.2 94.3 149 91.6 149 167.2V235H106.5H64V168.2C64 115.8 64.3 100.4 65.4 96.5C69.3 81.8 79.8 70.8 94.8 65.9C102.1 63.5 114.2 63.9 121.8 66.8ZM415.6 65.4C431.1 69.5 443.6 82.5 446.9 97.8C447.7 101.6 448 148.4 448 263.1V423.1L428 405.8C417 396.3 406.4 387.6 404.4 386.6C399 383.7 392.2 383.4 386.9 385.7C384.4 386.9 369.1 399.1 351.2 414.4L320 441.1L288.8 414.4C271.7 399.8 255.9 386.9 253.6 385.9C249 383.8 244.2 383.5 238.8 385C236.3 385.7 228.3 391.9 213.6 404.5L192 423V261.8C192 156.5 191.6 98.2 191 94C189.7 86.2 186.6 76.3 183.4 69.8C182.1 67.2 181 64.8 181 64.5C181 64.2 232.6 64 295.8 64C389.8 64 411.4 64.3 415.6 65.4Z" fill="#757575"/>
<path d="M245.9 109.3C243.5 110.6 240.2 113.6 238.5 115.9C235.8 119.8 235.5 120.9 235.5 127.9C235.5 134.7 235.8 136.1 238.2 139.6C239.7 141.7 242.6 144.6 244.7 146L248.4 148.5H320H391.6L395.3 146C397.4 144.6 400.3 141.7 401.8 139.6C404.2 136.1 404.5 134.7 404.5 128C404.5 121.3 404.2 119.9 401.8 116.4C400.3 114.3 397.4 111.4 395.3 110L391.6 107.5L321 107.2L250.4 107L245.9 109.3Z" fill="#757575"/>
<path d="M248 193.6C240.2 197 235 204.7 235 213C235 221.8 238.8 228.2 246.5 232.3C250.5 234.5 250.8 234.5 320 234.5H389.5L394 232C400.7 228.2 404.3 222.4 404.8 214.6C405.3 207.5 403.4 202.6 398.3 197.8C392 191.8 394.4 192 319.8 192C261 192.1 251 192.3 248 193.6Z" fill="#757575"/>
<path d="M251 277.9C240.6 281.1 235 288.5 235 299C235 307.4 240.3 315.1 248.2 318.4C251.5 319.8 260.7 320 320.2 320C384.5 320 388.7 319.8 392.5 318.1C400.2 314.5 405 307 405 298.5C405 290.2 401.1 283.7 393.5 279.7C389.5 277.5 389 277.5 321.5 277.3C284.1 277.2 252.4 277.5 251 277.9Z" fill="#757575"/>
</svg>
