<svg width="18" height="18" viewBox="0 0 18 18" fill="none" xmlns="http://www.w3.org/2000/svg">
<g clip-path="url(#clip0_1380_445)">
<path d="M6.96096 0.203906C6.06448 0.629297 0.650423 3.27305 0.622298 3.30117C0.594173 3.3293 3.18519 4.60547 3.26956 4.60547C3.32229 4.60547 10.0547 1.21992 10.0547 1.19531C10.0547 1.14961 7.67112 0.0246091 7.54104 0.0105467C7.42503 0 7.32659 0.0316405 6.96096 0.203906Z" fill="#FFC107"/>
<path d="M7.94551 3.52958C6.09981 4.46473 4.59512 5.24169 4.59864 5.25927C4.61973 5.312 7.46387 6.68309 7.53067 6.67255C7.64669 6.65145 14.4143 3.32567 14.3897 3.30106C14.344 3.25536 11.3803 1.82802 11.3416 1.83153C11.3205 1.83153 9.79122 2.59794 7.94551 3.52958Z" fill="#FFC107"/>
<path d="M3.34423e-05 7.63242C3.34423e-05 11.2324 -0.0069978 11.1023 0.182846 11.2781C0.267221 11.3555 6.86604 14.7656 6.92932 14.7656C6.9469 14.7656 6.96096 14.3754 6.96096 13.9008C6.96096 13.0465 6.96096 13.0289 6.86604 12.7828C6.78518 12.5648 6.77112 12.4805 6.77112 12.1113C6.77112 11.7422 6.78167 11.6613 6.8555 11.4785L6.93987 11.2676L6.95042 9.47109L6.96096 7.67461L5.49495 6.96094C4.68636 6.5707 4.00784 6.24023 3.98323 6.2332C3.95159 6.21914 3.93753 6.4582 3.9305 7.23516C3.91995 8.20195 3.91644 8.26172 3.84612 8.35313C3.70901 8.53945 3.59651 8.5957 3.37503 8.5957C3.15355 8.5957 3.04105 8.53945 2.90394 8.35313C2.83362 8.26172 2.83011 8.20547 2.81956 6.95391L2.80902 5.65312L1.83519 5.17852C1.30081 4.91836 0.668002 4.6125 0.432455 4.5L3.34423e-05 4.29258V7.63242Z" fill="#FFC107"/>
<path d="M11.5139 5.99062L8.10372 7.65352L8.09318 8.90508C8.08966 9.59414 8.09318 10.1602 8.10021 10.1602C8.11075 10.1602 8.21622 10.1391 8.33927 10.1109C8.46232 10.0828 8.99669 10.0336 9.52755 10.002C10.0584 9.97031 10.5049 9.93516 10.5154 9.92109C10.526 9.90703 10.6983 9.45352 10.8951 8.91211C11.092 8.3707 11.3029 7.84336 11.3662 7.74141C11.4295 7.63594 11.5842 7.44961 11.7178 7.32656C12.3752 6.7043 13.3068 6.57773 14.1084 7.00313C14.3721 7.14375 14.7483 7.50938 14.8994 7.76953L15.0119 7.96289V6.1418C15.0119 4.71094 15.0014 4.32422 14.9697 4.32773C14.9451 4.32773 13.3912 5.07656 11.5139 5.99062Z" fill="#FFC107"/>
<path d="M12.8392 8.33203C12.7759 8.3707 12.6985 8.44805 12.6634 8.5043C12.6282 8.56406 12.3716 9.23203 12.0938 9.99141C11.8161 10.7508 11.5876 11.3766 11.5876 11.3801C11.5841 11.3836 10.9266 11.4223 10.1216 11.4715C8.50438 11.5629 8.50789 11.5629 8.34266 11.8125C8.24774 11.9496 8.23719 12.1852 8.31453 12.3539C8.34969 12.4277 8.7786 12.818 9.50985 13.4402L10.6454 14.4141L10.2763 15.8625C9.88251 17.4164 9.86141 17.5641 10.0056 17.7645C10.0864 17.877 10.322 18 10.452 18C10.6208 18 10.7579 17.9191 11.9462 17.107C12.6423 16.6324 13.1345 16.3195 13.1591 16.3336C13.1837 16.3477 13.7392 16.7238 14.3966 17.1703L15.5919 17.9824H15.7923C16.0032 17.9824 16.1228 17.9227 16.2528 17.7504C16.3899 17.5641 16.3759 17.4656 15.9786 15.8941C15.7747 15.075 15.6095 14.4035 15.6165 14.4C15.7853 14.2734 17.8313 12.498 17.8876 12.4312C18.1161 12.1395 17.9474 11.6613 17.5853 11.5699C17.5114 11.5523 16.8294 11.5031 16.0665 11.4609C15.3036 11.4187 14.6743 11.3801 14.6708 11.3766C14.6673 11.373 14.4317 10.7367 14.147 9.96328C13.8622 9.19336 13.602 8.51836 13.5669 8.46914C13.4227 8.26523 13.0606 8.19844 12.8392 8.33203Z" fill="#FFC107"/>
</g>
<defs>
<clipPath id="clip0_1380_445">
<rect width="18" height="18" fill="white"/>
</clipPath>
</defs>
</svg>
