<svg width="47" height="42" viewBox="0 0 47 42" fill="none" xmlns="http://www.w3.org/2000/svg">
<path d="M28.9548 27.1937C29.3162 28.1132 29.8649 28.9474 30.566 29.6435C30.6779 29.725 30.8149 29.7648 30.9531 29.7557C31.0913 29.7467 31.2219 29.6895 31.3223 29.5941C31.3775 29.5459 31.4239 29.4884 31.4593 29.4243L31.4867 29.3969C32.4842 28.1912 33.6789 27.2047 35.038 27.1663C36.7972 27.1061 37.9536 28.8653 38.6715 30.6793C40.9944 26.5073 41.7988 21.6591 40.9477 16.9605C40.0967 12.262 37.6428 8.00388 34.0041 4.91179C30.3655 1.8197 25.7673 0.0849139 20.993 0.00303663C16.2187 -0.0788407 11.5637 1.49725 7.82123 4.46276C4.07872 7.42827 1.48024 11.5997 0.468571 16.2663C-0.5431 20.9329 0.0946242 25.8059 2.27307 30.055C4.45152 34.3042 8.03591 37.6665 12.4155 39.5691C16.7951 41.4717 21.6989 41.7968 26.2913 40.4891C25.546 40.1822 25.124 39.256 24.8993 38.4449C24.8281 38.0065 24.7404 37.5407 24.6363 37.0748C24.3513 35.7322 23.9786 34.3675 23.7155 33.4633C23.5457 32.8659 23.4196 32.4713 23.4032 32.4165C22.647 29.9441 21.6292 27.5595 20.3671 25.303C20.2864 25.1233 20.1872 24.9525 20.0711 24.7934C19.8407 24.5004 19.5545 24.256 19.229 24.0745C18.9035 23.8929 18.5452 23.7777 18.1749 23.7356H18.1091C12.3821 22.7053 11.4724 20.4474 11.3573 19.4938C11.3573 19.3459 11.3573 19.1924 11.3573 19.0444C11.374 18.722 11.4255 18.4023 11.5108 18.0909C12.4095 14.7149 17.5775 15.0986 20.8274 14.008L21.222 13.86C21.3535 13.8107 21.4796 13.7559 21.6056 13.6956C22.0879 13.4709 22.8277 13.0873 23.9238 12.4461C24.2218 12.352 24.532 12.3021 24.8445 12.2981C26.4448 12.2981 26.8723 14.8684 26.7736 18.9129C27.1285 21.758 27.862 24.543 28.9548 27.1937Z" fill="#7D749E"/>
<path d="M45.6864 37.7161C43.4614 37.2448 39.9758 35.8966 39.3182 32.3892L39.2634 32.4549C39.2195 32.5097 39.1428 32.5919 39.0387 32.707C37.3862 35.1297 35.2145 37.1536 32.6815 38.6313C30.8812 39.6789 28.9144 40.4092 26.8668 40.7906H26.8174C26.8174 40.7906 37.2685 44.5501 45.8782 38.8122C45.9701 38.7429 46.0412 38.6496 46.0834 38.5425C46.1257 38.4355 46.1376 38.3188 46.1177 38.2054C46.0979 38.092 46.0471 37.9863 45.971 37.9C45.8949 37.8136 45.7964 37.75 45.6864 37.7161Z" fill="#7D749E"/>
</svg>
